<?xml version="1.0" encoding="UTF-8" standalone="no"?>
<!-- Created with Inkscape (http://www.inkscape.org/) -->

<svg
   version="1.1"
   id="svg1"
   width="2048"
   height="2048"
   viewBox="0 0 2048 2048"
   sodipodi:docname="konsk.svg"
   inkscape:version="1.4 (e7c3feb100, 2024-10-09)"
   xmlns:inkscape="http://www.inkscape.org/namespaces/inkscape"
   xmlns:sodipodi="http://sodipodi.sourceforge.net/DTD/sodipodi-0.dtd"
   xmlns="http://www.w3.org/2000/svg"
   xmlns:svg="http://www.w3.org/2000/svg">
  <defs
     id="defs1" />
  <sodipodi:namedview
     id="namedview1"
     pagecolor="#ffffff"
     bordercolor="#000000"
     borderopacity="0.25"
     inkscape:showpageshadow="2"
     inkscape:pageopacity="0.0"
     inkscape:pagecheckerboard="0"
     inkscape:deskcolor="#d1d1d1"
     inkscape:zoom="0.25165441"
     inkscape:cx="1202.0453"
     inkscape:cy="1454.3754"
     inkscape:window-width="1520"
     inkscape:window-height="780"
     inkscape:window-x="0"
     inkscape:window-y="0"
     inkscape:window-maximized="1"
     inkscape:current-layer="g1" />
  <g
     inkscape:groupmode="layer"
     inkscape:label="Image"
     id="g1">
    <path
       style="fill:#000000"
       d="m 960.10106,1829.6559 c 15.89005,-8.4676 104.51864,-74.1089 104.85194,-77.6568 0.026,-0.2754 -4.919,-9.7254 -10.9886,-21 C 994.39379,1620.3442 956.66598,1528.0265 946.4835,1468 c -9.11472,-53.732 -12.20294,-131.6913 -7.58592,-191.5 0.55195,-7.15 2.03329,-28.975 3.29187,-48.5 l 2.28832,-35.5 0.0111,-50.5 c 0.0106,-48.1869 -0.56717,-62.7348 -3.55449,-89.5 -2.2453,-20.1169 -6.56411,-45.678 -8.50103,-50.3137 l -1.39299,-3.33389 -2.27019,0.70444 c -1.2486,0.38745 -7.22019,2.85165 -13.27019,5.47605 -31.12351,13.5006 -44.6138,16.5902 -77,17.6347 l -18,0.5805 -2,1.7684 c -1.1,0.9727 -14.6,10.2019 -30,20.5094 -15.4,10.3075 -31.15,21.0932 -35,23.9682 -3.85,2.875 -11.41403,8.2242 -16.80895,11.8872 -10.42356,7.0772 -16.04899,11.1641 -40.6797,29.5543 -26.43288,19.7358 -46.94293,41.873 -59.0598,63.7454 l -5.09638,9.1995 -0.84321,16.8098 -0.84322,16.8097 -1.95592,6.1742 c -7.94522,25.0805 -34.24555,45.5079 -65.94978,51.2231 l -10.23696,1.8454 -3.55127,2.7087 c -4.69745,3.5829 -14.55416,7.9923 -22.53266,10.0799 l -6.44215,1.6856 -12.5,-0.5367 c -12.36249,-0.5309 -21.75231,-2.4292 -30.5,-6.1662 -17.55407,-7.4991 -66.29223,-35.1288 -83.01075,-47.0589 l -6.16411,-4.3986 -3.34011,-12.2622 c -8.38537,-30.784 -20.00747,-50.9939 -43.67503,-75.9471 l -6.31,-6.6527 0.0118,-12.3473 c 0.0138,-14.4364 2.17378,-39.3172 5.16107,-59.4493 l 1.05384,-7.1021 7.8615,-7.1912 c 11.96903,-10.9484 21.25972,-25.0418 41.92959,-63.6046 7.17986,-13.39511 25.88032,-47.33976 32.50371,-59 3.4366,-6.05 11.54648,-20.675 18.02196,-32.5 6.47548,-11.825 16.51706,-30.05 22.31462,-40.5 43.03098,-77.56258 54.06409,-103.14798 59.72488,-138.5 l 1.68133,-10.5 -0.62436,-27.33532 -0.62435,-27.33532 11.87115,-12.82932 C 573.61994,598.14048 579.50245,588.0412 590.5124,544.5 c 5.75818,-22.77191 9.25952,-34.27698 16.84342,-55.34579 1.4543,-4.04018 2.64418,-7.74648 2.64418,-8.23621 0,-0.48972 -4.2766,1.98902 -9.50355,5.50833 C 591.49189,492.4891 563.7418,507 561.15214,507 c -0.66456,0 4.10578,-5.2875 10.60076,-11.75 6.49499,-6.4625 18.09513,-19.61032 25.77808,-29.21738 23.05261,-28.82584 33.56495,-39.53813 50.7178,-51.68247 l 7.74878,-5.48619 -1.05575,-1.97269 C 638.36178,375.9112 631.72499,320.6088 639.17366,275.5 c 2.75839,-16.70466 2.2326,-16.58723 11.27381,-2.51784 18.2124,28.34103 48.97173,57.69186 77.39037,73.8466 8.32226,4.73083 8.63043,4.82776 7.6983,2.42124 -9.11911,-23.54335 -7.67513,-70.72986 3.59545,-117.49253 4.99372,-20.71941 3.22327,-20.28256 20.12146,-4.96483 26.60157,24.11357 45.02014,45.05218 61.75764,70.20736 4.57441,6.875 11.09114,16.1 14.48161,20.5 3.39048,4.4 9.2114,12.24535 12.93538,17.43411 6.64618,9.26036 25.25119,30.02917 26.92238,30.05351 0.46754,0.007 4.59494,-1.76681 9.17201,-3.94137 C 900.35453,353.52426 918.20555,348.3887 939,345.37349 l 12.5,-1.8125 23.5,0.005 c 22.34566,0.004 28.9217,0.49084 54.5,4.03217 32.8891,4.55352 129.6376,29.66917 140.2144,36.39929 l 1.7856,1.13616 -3.5,-0.59582 c -29.6606,-5.04923 -81.702,-2.78114 -118.5,5.16452 l -3,0.64777 22.7891,3.24279 c 12.5339,1.78354 24.9089,3.71651 27.5,4.2955 23.0679,5.15474 54.3116,12.72888 88.7109,21.50545 56.2193,14.34367 81.2569,19.33958 116,23.14624 28.6226,3.13607 87.9228,4.18336 101.3785,1.79044 l 3.3784,-0.60081 -0.4071,1.22136 c -0.6609,1.98259 -57.0498,20.51882 -86.3498,28.38501 -32.5245,8.73187 -67.9419,14.26003 -98.3953,15.35814 l -17.3954,0.62726 7.7328,2.84424 c 8.0741,2.96978 18.5162,5.68857 39.5579,10.29963 79.6207,17.44801 128.4924,41.8772 192.9858,96.46669 16.2628,13.76538 26.0758,23.17289 83.0142,79.58385 57.2057,56.67578 82.7163,79.14904 113.9244,100.36038 16.4866,11.20552 15.7359,11.30735 -6.6993,0.90882 -33.7642,-15.64935 -40.2459,-19.18597 -86.4739,-47.1831 -58.7406,-35.57504 -93.0402,-54.04867 -119.6788,-64.45853 -7.3654,-2.87822 -7.2143,-2.38659 1.1943,3.88722 3.9783,2.9683 11.7333,8.76658 17.2333,12.88505 60.215,45.08985 102.2671,94.81087 171.4979,202.77321 54.8336,85.51058 79.1127,114.62015 107.7521,129.19005 6.8538,3.4868 4.9387,3.3349 -5.4735,-0.4342 -26.3783,-9.5485 -37.8701,-18.11395 -84.5372,-63.00959 -47.4435,-45.64252 -65.5072,-61.89678 -93.2393,-83.8996 -8.25,-6.54558 -16.1085,-12.83123 -17.4634,-13.96809 -3.7875,-3.1781 9.0737,11.32394 22.4865,25.35537 105.7675,110.64513 151.664,192.63301 165.5372,295.71001 l 2.1356,15.8676 0.534,25.5875 c 0.9271,44.4247 -3.0435,76.9896 -14.4665,118.6464 -4.739,17.2819 -4.9556,16.3584 -1.7358,-7.3977 l 2.6885,-19.8362 -0.073,-22.9356 c -0.3469,-108.7458 -35.7417,-183.7848 -122.1109,-258.8821 -17.3905,-15.1209 -17.346,-15.1273 -6.7977,0.9846 84.9839,129.8082 113.607,236.5381 93.2828,347.8331 -3.6927,20.221 -16.3901,63.6448 -22.5153,77 -1.009,2.2 -3.2739,7.5108 -5.0331,11.8018 -4.3293,10.5597 -4.5423,9.3132 -0.9659,-5.6519 1.6641,-6.9633 4.1914,-20.4207 5.6163,-29.9052 l 2.5906,-17.2447 0.5265,-27.2784 c 1.1008,-57.036 -6.9972,-97.7036 -27.4241,-137.7216 -4.2526,-8.3312 -14.8851,-26.1165 -14.0489,-23.5 35.9404,112.46 4.3319,256.5985 -78.6163,358.5 -26.554,32.6214 -67.4234,78.5693 -75.604,84.9986 l -2.543,1.9985 1.8823,-2.9985 c 1.0353,-1.6493 2.6617,-3.8986 3.6142,-4.9986 18.9211,-21.8512 70.3051,-114.1202 85.4831,-153.5 2.0139,-5.225 5.6052,-14.45 7.9808,-20.5 2.3756,-6.05 5.5511,-15.05 7.0565,-20 1.5055,-4.95 3.3369,-10.8 4.0698,-13 4.5758,-13.7346 13.7398,-50.3696 16.8848,-67.5 2.2375,-12.1877 4.5208,-26.871 4.5096,-29 -0.01,-1.375 -4.2157,9.875 -9.3521,25 -63.1291,185.8916 -141.6204,306.125 -254.629,390.0418 -7.9131,5.876 -51.6427,35.1909 -61,40.8924 -3.025,1.8432 -6.625,4.0445 -8,4.8919 -9.9294,6.1195 19.7671,-16.4205 48.5,-36.8122 54.2208,-38.4803 101.8527,-86.1174 121.9993,-122.0127 16.5967,-29.5704 40.2124,-88.6127 52.4371,-131.0996 6.0308,-20.96 6.0755,-21.3955 1.2736,-12.4016 -9.412,17.6286 -35.189,56.6175 -53.3572,80.7056 -55.9655,74.2009 -143.9662,145.1221 -249.4266,201.0169 -48.7823,25.855 -55.2582,28.8805 -43.2232,20.1933 72.3673,-52.2362 144.3108,-132.0655 176.6492,-196.0119 3.8672,-7.6472 7.5091,-15.2539 8.0931,-16.9039 l 1.0617,-3 -5.2535,5.9402 c -28.8054,32.5708 -93.677,87.0677 -140.6553,118.1608 -15.6242,10.3411 -19.0532,12.5184 -34.0982,21.6516 -49.3252,29.9434 -96.2145,53.1866 -151,74.8514 -6.875,2.7187 -14.42454,5.8325 -16.77675,6.9196 -5.9869,2.7667 -8.45808,2.4757 -3.12219,-0.3677 z"
       id="path21856" />
  </g>
</svg>
